<svg width="311" height="91" viewBox="0 0 311 91" fill="none" xmlns="http://www.w3.org/2000/svg">
<path d="M107.893 49.607C107.893 49.607 108.071 54.8126 118.737 59.2107C121.898 60.5177 124.847 60.8707 125.108 58.8952C125.624 54.929 110.519 54.6774 113.593 41.855C112.502 32.871 109.975 41.0137 109.821 41.6597C109.666 42.3057 106.426 46.6174 106.426 46.6174L107.893 49.607Z" fill="url(#paint0_linear_1_129)"/>
<path d="M113.687 39.6916C113.687 39.6916 114.196 44.8822 125.107 48.638C128.344 49.7648 130.045 49.5582 130.184 47.5713C130.46 43.5826 116.629 44.6042 118.922 31.6203C117.292 22.7153 115.26 31.0006 115.15 31.6504C115.041 32.3001 112.05 36.8071 112.05 36.8071L113.687 39.6916Z" fill="url(#paint1_linear_1_129)"/>
<path d="M107.577 55.3309C107.577 55.3309 106.464 58.8238 111.56 62.7486C114.268 64.8331 117.342 65.3289 117.904 63.4172C119.035 59.5787 108.565 55.9994 108.885 46.9554C109.206 37.9113 105.736 43.4174 105.491 44.0296C105.246 44.6418 104.737 51.5412 104.737 51.5412L107.577 55.3309Z" fill="url(#paint2_linear_1_129)"/>
<path d="M113.528 42.1291C113.528 42.1291 109.877 43.3423 108.101 49.6408C106.324 55.9393 111.918 60.7768 110.888 64.4162C109.858 68.0556 103.643 64.266 101.383 56.052C99.1242 47.838 102.172 36.8973 107.339 30.0879C111.865 24.1237 112.457 17.0665 106.283 18.4674C105.106 14.644 111.356 13.2431 111.646 13.2393L115.852 13.1604L118.922 18.6289L117.836 26.55L114.698 36.6193L113.528 42.1291Z" fill="url(#paint3_linear_1_129)"/>
<path d="M113.528 42.1291C113.825 42.4463 114.004 42.8541 114.038 43.2859C114.362 45.1 114.886 49.3516 116.282 50.4746C117.338 51.3234 119.141 51.1657 119.929 47.7817C120.717 44.3977 119.959 39.0757 121.011 36.9649C121.8 35.3912 124.334 31.4363 126.05 27.9208C126.631 26.7302 129.068 23.2824 127.729 17.7989C126.643 10.5877 128.977 8.33795 132.689 8.22527L125.805 4.69479L116.063 7.26002C116.063 7.26002 113.261 12.1989 110.99 13.1191C111.145 14.8581 106.562 17.1303 106.283 18.4749C112.14 16.1726 116.357 19.6693 114.524 27.4889C111.627 39.8118 113.528 42.1291 113.528 42.1291Z" fill="url(#paint4_linear_1_129)"/>
<path d="M156.13 41.1639C156.13 41.1639 155.949 35.9546 145.286 31.5565C142.122 30.2532 139.172 29.9002 138.916 31.872C138.395 35.8419 153.505 36.0935 150.427 48.9159C151.517 57.8999 154.048 49.7535 154.199 49.1112C154.35 48.469 157.593 44.1498 157.593 44.1498L156.13 41.1639Z" fill="url(#paint5_linear_1_129)"/>
<path d="M150.318 51.0755C150.318 51.0755 149.827 45.8887 138.912 42.1404C135.68 41.0137 133.975 41.2203 133.839 43.2033C133.56 47.1958 147.391 46.1742 145.098 59.1581C146.731 68.0594 148.764 59.7778 148.869 59.1243C148.975 58.4708 151.974 53.9675 151.974 53.9675L150.318 51.0755Z" fill="url(#paint6_linear_1_129)"/>
<path d="M156.443 35.4363C156.443 35.4363 157.574 31.9471 152.46 28.0222C149.756 25.9378 146.682 25.442 146.12 27.35C144.988 31.1922 155.455 34.7677 155.134 43.8118C154.814 52.8558 158.287 47.3498 158.529 46.7413C158.77 46.1329 159.283 39.2297 159.283 39.2297L156.443 35.4363Z" fill="url(#paint7_linear_1_129)"/>
<path d="M150.491 48.638C150.491 48.638 154.142 47.4249 155.919 41.1263C157.695 34.8278 152.102 29.9903 153.135 26.3471C154.169 22.704 160.377 26.5011 162.636 34.7151C164.895 42.9291 161.848 53.8586 156.684 60.6905C152.158 66.666 151.566 73.7082 157.74 72.2997C163.915 70.8913 152.664 77.5203 152.377 77.5278L148.168 77.6067L145.098 72.1382L146.195 64.2097L149.326 54.144L150.491 48.638Z" fill="url(#paint8_linear_1_129)"/>
<path d="M150.491 48.638C150.198 48.3205 150.019 47.9149 149.982 47.485C149.658 45.6709 149.133 41.4155 147.719 40.2926C146.667 39.4437 144.864 39.6052 144.076 42.9892C143.287 46.3733 144.042 51.6953 142.989 53.8023C142.205 55.376 139.67 59.3309 137.954 62.8501C137.369 64.0407 134.937 67.4848 136.276 72.972C137.362 80.1832 134.944 82.9287 131.312 82.5457C126.986 83.3757 138.199 86.0874 138.199 86.0874L147.942 83.5222C147.942 83.5222 150.74 78.587 153.015 77.6668C152.856 75.9241 157.443 73.6518 157.722 72.311C151.86 74.6133 147.644 71.1129 149.48 63.297C152.392 50.9591 150.491 48.638 150.491 48.638Z" fill="url(#paint9_linear_1_129)"/>
<path d="M85.9233 43.1507C88.1533 43.1081 90.3099 42.3501 92.0726 40.9893C93.8353 39.6285 95.11 37.7376 95.7071 35.5978C97.8788 27.9092 102.479 21.1213 108.827 16.239C115.174 11.3566 122.932 8.63933 130.951 8.48933C138.97 8.33934 146.825 10.7646 153.352 15.4062C159.879 20.0477 164.732 26.6588 167.192 34.2607C167.87 36.3772 169.215 38.2195 171.028 39.514C172.841 40.8084 175.025 41.4858 177.255 41.4456C176.195 29.9754 170.815 19.3296 162.196 11.647C153.578 3.96445 142.359 -0.185791 130.793 0.0301312C119.228 0.246054 108.173 4.81214 99.8498 12.811C91.5264 20.8099 86.551 31.649 85.9233 43.1507Z" fill="url(#paint10_linear_1_129)"/>
<path d="M177.738 47.8493C175.518 47.8839 173.368 48.631 171.609 49.9796C169.85 51.3283 168.574 53.2064 167.973 55.3346C165.812 63.0377 161.214 69.8415 154.862 74.7361C148.509 79.6308 140.742 82.3554 132.711 82.5055C124.681 82.6556 116.816 80.2233 110.283 75.5695C103.751 70.9157 98.9001 64.2886 96.4501 56.6717C95.7674 54.5674 94.4214 52.7384 92.612 51.4562C90.8026 50.1741 88.6263 49.5071 86.406 49.5544C87.4662 61.0246 92.8461 71.6704 101.465 79.3529C110.083 87.0355 121.302 91.1858 132.868 90.9699C144.433 90.7539 155.488 86.1879 163.811 78.189C172.135 70.1901 177.11 59.351 177.738 47.8493Z" fill="url(#paint11_linear_1_129)"/>
<path d="M251.035 20.3851H261.945V56.7393H251.035V42.9026H196.22V56.7393H185.231V20.3851H196.22V34.1692H251.035V20.3851Z" fill="#24224F"/>
<path d="M297.317 20.3851H310.789L293.803 43.9286V56.7393H282.867V43.9286L265.881 20.3851H279.353L288.335 32.8276L297.317 20.3851Z" fill="#24224F"/>
<path d="M66.7023 56.7393L62.0001 47.2167H14.7142V56.7393H3.72485V20.3851H65.4607C67.2834 20.3851 69.0533 20.7271 70.7176 21.4111C73.9668 22.7789 76.5293 25.3306 77.9029 28.5662C79.3559 31.8543 79.3559 35.7212 77.9029 39.0094C77.2161 40.6141 76.2651 42.0346 75.0499 43.2709C74.4423 43.8759 73.7819 44.4284 73.0951 44.8756L78.8803 56.7393H66.7023ZM14.7142 29.0923V38.4833H63.2417C64.5361 38.4833 65.6456 38.0361 66.5702 37.1154C67.4948 36.1947 67.9438 35.0899 67.9438 33.8009C67.9438 32.512 67.4948 31.4071 66.5702 30.4865C65.6456 29.5658 64.5361 29.0923 63.2417 29.0923H14.7142Z" fill="#43B282"/>
<defs>
<linearGradient id="paint0_linear_1_129" x1="124.649" y1="50.2647" x2="110.666" y2="47.7538" gradientUnits="userSpaceOnUse">
<stop stop-color="#97C665"/>
<stop offset="1" stop-color="#43B282"/>
</linearGradient>
<linearGradient id="paint1_linear_1_129" x1="129.31" y1="39.1832" x2="116.083" y2="37.6281" gradientUnits="userSpaceOnUse">
<stop offset="0.04" stop-color="#97C665"/>
<stop offset="1" stop-color="#43B282"/>
</linearGradient>
<linearGradient id="paint2_linear_1_129" x1="118.749" y1="55.6794" x2="106.942" y2="51.5872" gradientUnits="userSpaceOnUse">
<stop stop-color="#97C665"/>
<stop offset="1" stop-color="#43B282"/>
</linearGradient>
<linearGradient id="paint3_linear_1_129" x1="113.713" y1="27.2108" x2="99.7887" y2="63.5583" gradientUnits="userSpaceOnUse">
<stop stop-color="#43B282"/>
<stop offset="0.97" stop-color="#97C665"/>
</linearGradient>
<linearGradient id="paint4_linear_1_129" x1="119.313" y1="4.78188" x2="120.17" y2="50.8392" gradientUnits="userSpaceOnUse">
<stop stop-color="#43B282"/>
<stop offset="1" stop-color="#97C665"/>
</linearGradient>
<linearGradient id="paint5_linear_1_129" x1="139.369" y1="40.5005" x2="153.356" y2="43.0112" gradientUnits="userSpaceOnUse">
<stop stop-color="#1A82AE"/>
<stop offset="1" stop-color="#24224F"/>
</linearGradient>
<linearGradient id="paint6_linear_1_129" x1="134.713" y1="51.5803" x2="147.936" y2="53.1358" gradientUnits="userSpaceOnUse">
<stop offset="0.03" stop-color="#1A82AE"/>
<stop offset="1" stop-color="#24224F"/>
</linearGradient>
<linearGradient id="paint7_linear_1_129" x1="145.272" y1="35.0874" x2="157.079" y2="39.1796" gradientUnits="userSpaceOnUse">
<stop stop-color="#1A82AE"/>
<stop offset="1" stop-color="#24224F"/>
</linearGradient>
<linearGradient id="paint8_linear_1_129" x1="150.828" y1="63.7522" x2="164.753" y2="27.4047" gradientUnits="userSpaceOnUse">
<stop stop-color="#24224F"/>
<stop offset="1" stop-color="#1A82AE"/>
</linearGradient>
<linearGradient id="paint9_linear_1_129" x1="144.206" y1="85.9899" x2="143.349" y2="39.9362" gradientUnits="userSpaceOnUse">
<stop stop-color="#24224F"/>
<stop offset="1" stop-color="#1A82AE"/>
</linearGradient>
<linearGradient id="paint10_linear_1_129" x1="172.497" y1="14.2808" x2="85.0561" y2="40.698" gradientUnits="userSpaceOnUse">
<stop stop-color="#97C665"/>
<stop offset="1" stop-color="#43B282"/>
</linearGradient>
<linearGradient id="paint11_linear_1_129" x1="180.814" y1="49.8165" x2="93.3729" y2="76.2337" gradientUnits="userSpaceOnUse">
<stop stop-color="#1A82AE"/>
<stop offset="0.99" stop-color="#24224F"/>
</linearGradient>
</defs>
</svg>
